<svg width="58" height="45" viewBox="0 0 58 45" fill="none" xmlns="http://www.w3.org/2000/svg">
<path fill-rule="evenodd" clip-rule="evenodd" d="M57.0149 16.5753C56.9677 16.9283 56.9048 17.2813 56.881 17.6343C56.8103 18.6381 56.7236 19.6419 56.6961 20.6485C56.7229 21.1006 56.4279 21.5325 55.9084 21.8013C50.6584 24.686 45.4211 27.5799 40.1972 30.4829C40.1411 30.5199 40.0806 30.5531 40.0159 30.5822C39.3913 30.8217 39.0516 31.3119 39.1695 31.8039C39.2205 32.4106 39.1695 33.0256 39.1695 33.6351C39.1695 33.8254 39.2283 34.0157 39.2797 34.3163C39.6419 34.1536 39.8979 34.0598 40.1266 33.9357C42.4233 32.6671 44.7178 31.3967 47.0092 30.1244L55.5818 25.3782C55.7391 25.2927 55.9084 25.2127 56.137 25.1024C56.1831 25.213 56.2123 25.3267 56.2234 25.4416C56.137 26.4069 56.113 27.3721 55.924 28.3373C55.6752 29.5094 54.7748 30.565 53.4198 31.2744C48.2403 34.1609 43.0548 37.0419 37.8622 39.9174C36.7407 40.6223 35.2634 40.9837 33.7592 40.9213C33.0472 40.87 32.3463 40.7589 31.6721 40.5903C25.6946 39.1314 19.7252 37.6505 13.7479 36.1778C12.185 35.846 10.8525 35.1211 10.007 34.1425C9.54345 33.6018 9.27324 32.9906 9.21927 32.361C9.12082 30.9628 9.00671 29.5646 8.90448 28.1664C8.74434 26.0686 8.58807 23.9708 8.43571 21.873C8.38447 21.1753 8.32172 20.4748 8.30176 19.7743C8.30058 18.8854 8.80684 18.0331 9.70743 17.4069C10.6084 16.7808 11.8291 16.4327 13.0981 16.4401C13.7103 16.4553 14.318 16.5191 14.9095 16.6304C19.1571 17.5203 23.3993 18.4212 27.6362 19.3331C29.8092 19.8689 32.2259 19.5479 33.9677 18.492C38.9016 15.7065 43.9024 12.9763 48.8717 10.2185C49.1378 10.0777 49.388 9.92282 49.6201 9.75523C50.1107 9.39965 50.3242 8.89929 50.1926 8.41342C50.0611 7.92756 49.6007 7.51674 48.9582 7.31177C48.746 7.24694 48.5278 7.19256 48.3043 7.14904L29.0101 2.87994L28.4901 2.75308C28.7615 2.59313 28.947 2.4773 29.1438 2.37526C29.9313 1.93952 30.7189 1.51758 31.5063 1.0653C31.8399 0.837569 32.3336 0.768457 32.7663 0.888815C37.5151 1.92298 42.268 2.93785 47.0206 3.961C49.2493 4.44086 51.4621 4.96209 53.7147 5.39507C56.3367 5.83417 58.0319 7.61533 57.6012 9.4794C57.4712 10.4253 57.3885 11.3768 57.3373 12.3255C57.3533 12.6516 57.1363 12.9618 56.7581 13.1528C53.9116 14.7165 51.0805 16.2912 48.2415 17.8631C45.4653 19.402 42.693 20.9464 39.9052 22.4715C39.4064 22.7008 39.1255 23.1026 39.1729 23.5194C39.2205 24.1841 39.1729 24.8487 39.1729 25.5133C39.2005 25.7411 39.2464 25.9676 39.3107 26.1918C42.3781 24.5509 45.2369 22.9237 48.1309 21.3297C51.0252 19.7357 53.9192 18.1224 56.794 16.5201L57.0149 16.5753ZM16.7878 25.7781C16.6654 26.9537 17.2116 28.1156 18.3075 29.0103C18.6521 29.249 18.8378 29.5782 18.8195 29.9176C18.796 30.9407 18.8199 31.9639 18.8199 32.987C18.797 33.4385 18.9579 33.8852 19.2844 34.2749C19.4887 34.5779 19.9242 34.7712 20.4026 34.7712C20.8813 34.7712 21.3165 34.5779 21.5206 34.2749C21.6765 34.1064 21.7872 33.9195 21.8477 33.7233C21.9375 33.4255 21.9913 33.1229 22.0095 32.8188C22.0683 31.7984 22.0881 30.7752 22.159 29.7548C22.165 29.5449 22.27 29.3422 22.458 29.1785C23.5961 28.3552 24.2447 27.2601 24.2737 26.1145C24.3787 25.2103 24.0321 24.3086 23.2928 23.5636C22.7013 22.8876 21.6489 22.4772 20.5169 22.4811C19.3848 22.4851 18.3383 22.9028 17.7563 23.5828C17.0985 24.2204 16.7581 24.9917 16.7878 25.7781Z" fill="white"/>
<path fill-rule="evenodd" clip-rule="evenodd" d="M32.4249 42.9842C32.2123 43.1193 32.055 43.2324 31.8816 43.3289C31.0941 43.7785 30.2596 44.2114 29.4799 44.6775C29.1523 44.9068 28.6553 44.9685 28.2355 44.8319C24.164 43.8005 20.0806 42.7912 16.0013 41.7763C14.2134 41.3295 12.4102 40.9158 10.646 40.4305C5.88998 39.2763 2.62467 36.2031 2.41218 32.681C2.01854 29.584 1.71525 26.4842 1.38038 23.3844C1.14792 21.2168 0.927718 19.0491 0.703099 16.8787C0.596946 15.8583 0.463057 14.8379 0.399876 13.8148C0.22115 11.5655 1.63665 9.39902 4.1837 8.02339C6.12125 6.90095 8.07827 5.79231 10.0904 4.74158C13.5443 2.82576 18.1443 2.25853 22.3249 3.23304C29.8299 4.88774 37.2878 6.60862 44.7694 8.30468C44.942 8.33798 45.1086 8.38518 45.2654 8.44531C45.5288 8.54569 45.7136 8.72383 45.7687 8.93032C45.8239 9.13681 45.7431 9.34966 45.5487 9.5098C45.4165 9.61851 45.2656 9.71573 45.1001 9.79943L32.9485 16.5092C32.0713 17.0264 30.9428 17.2863 29.7984 17.2345C29.365 17.2074 28.9373 17.1473 28.5226 17.0552C24.1964 16.1617 19.8731 15.2636 15.5521 14.3608C13.991 13.9862 12.3086 13.9374 10.7088 14.2202C7.51374 14.8505 5.28932 16.8761 5.23932 19.2008C5.23932 20.4032 5.37333 21.6056 5.47177 22.808C5.5977 24.4241 5.74347 26.0374 5.88519 27.6507C6.023 29.2117 6.10981 30.7753 6.31832 32.339C6.52311 34.8358 8.81575 37.0117 12.1619 37.885C14.3591 38.5276 16.635 39.035 18.8796 39.5976L31.5469 42.7663C31.846 42.8187 32.102 42.8932 32.4249 42.9842Z" fill="white"/>
</svg>
