<svg width="18" height="13" viewBox="0 0 18 13" fill="none" xmlns="http://www.w3.org/2000/svg">
<path d="M0.390938 0.705322C0.39994 0.699219 0.407936 0.692383 0.41494 0.686279C0.421936 0.68335 0.42894 0.677246 0.434937 0.674316L0.458939 0.658203L0.478935 0.64624C0.488937 0.642334 0.49794 0.637207 0.506943 0.633301L0.527939 0.623291L0.554939 0.611328L0.576942 0.603271C0.586937 0.601318 0.59594 0.596191 0.604942 0.594238L0.627937 0.588379C0.637939 0.585205 0.648941 0.583252 0.658936 0.581299L0.679939 0.577393C0.69194 0.574219 0.702942 0.573242 0.715942 0.572266L0.73394 0.569336C0.749939 0.568359 0.768936 0.567383 0.787941 0.567383H16.8009C16.8189 0.567383 16.8369 0.568359 16.8539 0.569336L16.8729 0.572266C16.8849 0.573242 16.8959 0.574219 16.9079 0.577393L16.9289 0.581299L16.9609 0.588379L16.9819 0.594238C16.9919 0.596191 17.0009 0.601318 17.0119 0.603271L17.0329 0.611328L17.0599 0.623291L17.0809 0.633301C17.0909 0.637207 17.0989 0.642334 17.1079 0.64624L17.1279 0.658203L17.1539 0.674316C17.1599 0.677246 17.1649 0.68335 17.1719 0.686279L17.1969 0.705322L17.2089 0.716309L9.25294 8.67334C9.12994 8.79541 8.96794 8.8623 8.79395 8.8623C8.62094 8.8623 8.45694 8.79541 8.33594 8.67334L0.377937 0.716309L0.390938 0.705322ZM0.137939 2.31128L4.24194 6.41528L0.137939 10.5183V2.31128ZM16.8009 12.2522H0.798943C0.644936 12.2522 0.500938 12.1973 0.388939 12.1042L5.15994 7.33325L7.41695 9.59131C7.78494 9.95825 8.27394 10.1614 8.79395 10.1614C9.31294 10.1614 9.80394 9.95825 10.1709 9.59131L12.4379 7.32227L17.2169 12.1013C17.1029 12.1953 16.9579 12.2522 16.8009 12.2522ZM17.4499 10.4973L13.3569 6.4043L17.4499 2.31128V10.4973Z" fill="white"/>
</svg>
