<svg xmlns="http://www.w3.org/2000/svg" width="75" height="75" viewBox="0 0 75 75">
  <g id="Group_8872" data-name="Group 8872" transform="translate(-1348 -8239)">
    <rect id="Rectangle_2906" data-name="Rectangle 2906" width="75" height="75" rx="11" transform="translate(1348 8239)" fill="#fff" opacity="0.34"/>
    <path id="Path_11306" data-name="Path 11306" d="M1108.11,3450.461v12.727a.332.332,0,0,0,.331.333h4.728a.332.332,0,0,0,.331-.333v-12.934h3.426a.331.331,0,0,0,.33-.3l.331-3.9a.332.332,0,0,0-.331-.36H1113.5v-2.765a1.173,1.173,0,0,1,1.174-1.174h2.641a.332.332,0,0,0,.331-.331v-3.9a.332.332,0,0,0-.331-.332h-4.463a4.741,4.741,0,0,0-4.742,4.742v3.758h-2.363a.332.332,0,0,0-.332.33v3.9a.332.332,0,0,0,.332.332h2.363Z" transform="translate(272.883 4826.347)" fill="#fff" fill-rule="evenodd"/>
  </g>
</svg>
