<svg xmlns="http://www.w3.org/2000/svg" width="75" height="75" viewBox="0 0 75 75">
  <g id="Group_8873" data-name="Group 8873" transform="translate(-1443 -8239)">
    <rect id="Rectangle_2907" data-name="Rectangle 2907" width="75" height="75" rx="11" transform="translate(1443 8239)" fill="#fff" opacity="0.34"/>
    <path id="Path_11307" data-name="Path 11307" d="M1172.635,3441.683a1.614,1.614,0,1,0,1.614,1.614,1.613,1.613,0,0,0-1.614-1.614m-7.177,2.07a6.781,6.781,0,1,0,6.78,6.781,6.789,6.789,0,0,0-6.78-6.781m0,11.127a4.345,4.345,0,1,1,4.344-4.346,4.352,4.352,0,0,1-4.344,4.346m13.684-9.983a8.272,8.272,0,0,0-8.273-8.271h-10.918a8.272,8.272,0,0,0-8.271,8.271v10.919a8.271,8.271,0,0,0,8.271,8.271h10.918a8.271,8.271,0,0,0,8.273-8.271Zm-2.591,10.919a5.681,5.681,0,0,1-5.682,5.681h-10.918a5.681,5.681,0,0,1-5.68-5.681V3444.9a5.681,5.681,0,0,1,5.68-5.68h10.918a5.681,5.681,0,0,1,5.682,5.68Z" transform="translate(314.883 4826.347)" fill="#fff"/>
  </g>
</svg>
