<svg xmlns="http://www.w3.org/2000/svg" width="75" height="75" viewBox="0 0 75 75">
  <g id="Group_8874" data-name="Group 8874" transform="translate(-1538 -8239)">
    <rect id="Rectangle_2908" data-name="Rectangle 2908" width="75" height="75" rx="11" transform="translate(1538 8239)" fill="#fff" opacity="0.34"/>
    <g id="Group_8309" data-name="Group 8309" transform="translate(74 1485)">
      <path id="Path_11308" data-name="Path 11308" d="M1240.117,3452.864v8.186a.366.366,0,0,1-.366.366h-4.226a.366.366,0,0,1-.366-.366v-7.613c0-2-.716-3.372-2.512-3.372a2.711,2.711,0,0,0-2.543,1.814,3.4,3.4,0,0,0-.164,1.208v7.963a.366.366,0,0,1-.366.366h-4.224a.365.365,0,0,1-.367-.366c.009-2.028.052-11.865.009-14.176a.364.364,0,0,1,.365-.371h4.217a.366.366,0,0,1,.366.366v1.747c-.009.017-.024.033-.033.049h.033v-.049a4.926,4.926,0,0,1,4.469-2.463c3.263,0,5.708,2.131,5.708,6.711m-22.469,8.552h4.225a.365.365,0,0,0,.366-.366v-14.181a.366.366,0,0,0-.366-.366h-4.225a.366.366,0,0,0-.366.366v14.181a.366.366,0,0,0,.366.366" transform="translate(272.883 3341.347)" fill="#fff"/>
      <path id="Path_11309" data-name="Path 11309" d="M1222.267,3441.952a2.654,2.654,0,1,1-2.655-2.654,2.655,2.655,0,0,1,2.655,2.654" transform="translate(272.883 3341.347)" fill="#fff"/>
    </g>
  </g>
</svg>
