<svg width="18" height="18" viewBox="0 0 18 18" fill="none" xmlns="http://www.w3.org/2000/svg">
<path d="M16.061 11.3627C15.0011 11.3627 13.9603 11.1969 12.9741 10.871C12.4909 10.7061 11.8968 10.8574 11.6018 11.1603L9.65522 12.6298C7.3977 11.4247 6.00711 10.0346 4.81851 7.794L6.24475 5.89811C6.6153 5.52805 6.74821 4.98749 6.58897 4.48029C6.26166 3.48888 6.09539 2.44864 6.09539 1.38826C6.09543 0.622227 5.47223 -0.000976562 4.70624 -0.000976562H1.52688C0.760899 -0.000976562 0.137695 0.622227 0.137695 1.38821C0.137695 10.1684 7.2808 17.3115 16.061 17.3115C16.827 17.3115 17.4502 16.6883 17.4502 15.9223V12.7518C17.4502 11.9859 16.8269 11.3627 16.061 11.3627Z" fill="white"/>
</svg>
