<svg width="19" height="15" viewBox="0 0 19 15" fill="none" xmlns="http://www.w3.org/2000/svg">
<path d="M18.0954 6.21834L18.0944 6.21725L12.1783 0.329696C11.7351 -0.111359 11.0182 -0.109711 10.5771 0.333541C10.136 0.776748 10.1377 1.49362 10.5809 1.93474L14.5529 5.88756H1.33096C0.705627 5.88756 0.19873 6.39445 0.19873 7.01977C0.19873 7.6451 0.705627 8.15199 1.33096 8.15199H14.5529L10.5809 12.1048C10.1377 12.5459 10.136 13.2628 10.5771 13.706C11.0183 14.1493 11.7352 14.1509 12.1784 13.7099L18.0945 7.8223L18.0955 7.82121C18.5389 7.37863 18.5375 6.65944 18.0954 6.21834Z" fill="#E35D09"/>
</svg>
